<?xml version="1.0" standalone="no"?>
<!DOCTYPE svg PUBLIC "-//W3C//DTD SVG 20010904//EN"
 "http://www.w3.org/TR/2001/REC-SVG-20010904/DTD/svg10.dtd">
<svg version="1.0" xmlns="http://www.w3.org/2000/svg"
 width="325.000000pt" height="340.000000pt" viewBox="0 0 325.000000 340.000000"
 preserveAspectRatio="xMidYMid meet">

<g transform="translate(0.000000,340.000000) scale(0.100000,-0.100000)"
fill="#000000" stroke="none">
<path d="M1441 3209 c-43 -13 -121 -91 -149 -152 -31 -66 -45 -141 -39 -203 6
-60 23 -97 66 -143 l31 -33 -30 -36 c-16 -21 -32 -51 -36 -69 -6 -29 -11 -32
-70 -47 -36 -9 -105 -34 -154 -55 -539 -233 -817 -810 -665 -1381 83 -309 315
-587 609 -730 257 -125 528 -152 812 -81 262 65 413 144 577 300 466 443 475
1173 21 1627 -161 162 -389 282 -618 325 -72 14 -82 20 -89 57 -3 15 -8 34
-11 42 -4 10 8 23 35 40 49 30 85 75 104 131 40 112 -6 219 -118 276 -59 29
-162 44 -155 22 3 -8 26 -17 57 -21 166 -24 245 -156 175 -296 -23 -46 -92
-112 -117 -112 -5 0 -22 11 -39 25 -16 13 -47 30 -70 37 -40 12 -69 7 -173
-27 -45 -14 -114 92 -115 176 0 66 35 170 73 221 36 46 99 88 135 88 13 0 22
6 22 15 0 17 -19 18 -69 4z m130 -542 c31 -21 79 -80 79 -98 0 -4 -55 -7 -123
-7 -67 0 -143 -3 -170 -7 -33 -5 -47 -4 -47 4 0 19 26 64 48 84 19 17 22 17
51 2 17 -8 31 -21 31 -28 0 -19 39 -39 61 -32 23 8 38 41 31 67 -6 23 -46 34
-75 21 -27 -12 -57 -5 -36 8 29 18 115 10 150 -14z m228 -191 c319 -89 572
-301 717 -601 83 -171 99 -251 98 -480 0 -163 -3 -201 -22 -269 -64 -230 -198
-439 -372 -579 -147 -119 -262 -176 -447 -223 -95 -25 -126 -28 -258 -28 -163
0 -273 20 -405 72 -321 127 -565 397 -666 737 -36 121 -46 376 -19 506 80 398
360 716 742 845 131 44 203 54 378 50 134 -4 175 -8 254 -30z"/>
<path d="M1365 2460 c-339 -53 -626 -254 -789 -551 -136 -249 -166 -573 -76
-839 127 -377 445 -650 837 -720 98 -17 295 -13 398 9 239 50 457 183 609 372
82 102 176 288 207 409 27 107 37 318 19 428 -68 426 -387 768 -813 873 -95
23 -300 33 -392 19z m338 -61 c224 -40 446 -170 592 -349 243 -297 301 -694
152 -1046 -118 -280 -376 -504 -678 -586 -73 -20 -106 -23 -259 -22 -200 0
-268 14 -414 82 -469 220 -702 741 -549 1227 120 379 453 658 844 704 84 10
226 6 312 -10z"/>
<path d="M922 2034 c-16 -11 -22 -25 -22 -54 0 -48 27 -70 86 -70 33 0 47 5
62 24 24 31 18 81 -11 101 -28 20 -87 19 -115 -1z"/>
<path d="M1985 2017 c-39 -22 -40 -25 -43 -80 -3 -53 -5 -57 -27 -57 -23 0
-25 -4 -25 -50 0 -47 2 -50 25 -50 l25 0 0 -112 c0 -133 11 -179 48 -209 21
-16 36 -20 69 -16 57 6 73 21 73 68 l0 38 -36 -6 c-25 -4 -39 -2 -45 8 -5 8
-9 62 -9 122 l0 107 45 0 45 0 0 50 0 50 -45 0 -45 0 0 80 c0 44 -3 80 -7 80
-5 0 -26 -11 -48 -23z"/>
<path d="M1150 1735 l0 -285 55 0 55 0 0 100 0 100 26 0 c53 0 114 23 148 56
87 85 67 243 -38 293 -34 17 -62 21 -144 21 l-102 0 0 -285z m204 164 c20 -15
26 -29 26 -58 0 -57 -22 -81 -76 -81 l-44 0 0 80 0 80 34 0 c19 0 45 -9 60
-21z"/>
<path d="M1630 1873 c-137 -71 -133 -361 6 -419 18 -8 46 -14 61 -14 36 0 105
34 121 61 13 20 11 24 -15 45 -33 28 -40 29 -59 9 -20 -20 -68 -19 -88 1 -15
14 -17 21 -20 57 -1 8 29 13 104 17 l105 5 -3 60 c-4 69 -34 140 -73 168 -38
27 -97 32 -139 10z m83 -85 c9 -7 21 -28 26 -45 l10 -33 -61 0 -60 0 7 28 c7
31 32 62 50 62 6 0 19 -6 28 -12z"/>
<path d="M907 1873 c-9 -8 -9 -386 -1 -407 5 -12 21 -16 75 -16 l69 0 0 215 0
215 -68 0 c-38 0 -72 -3 -75 -7z"/>
<path d="M656 1448 c-21 -29 -20 -41 2 -61 37 -34 82 -15 82 35 0 47 -57 65
-84 26z"/>
<path d="M2308 1459 c-21 -12 -24 -59 -6 -77 19 -19 55 -14 72 10 20 29 20 34
-4 58 -22 22 -37 24 -62 9z"/>
<path d="M910 1091 l0 -302 53 3 52 3 3 103 c2 93 4 102 22 102 10 0 43 5 72
11 99 22 158 112 143 220 -15 111 -74 150 -237 157 l-108 5 0 -302z m211 170
c19 -15 24 -29 24 -65 0 -57 -19 -77 -79 -83 l-46 -6 0 87 0 86 39 0 c23 0 48
-8 62 -19z"/>
<path d="M1330 1091 l0 -302 53 3 52 3 3 113 c2 81 6 112 15 112 7 0 34 -52
60 -115 l49 -115 54 0 c30 0 54 5 54 10 0 6 -20 60 -45 122 l-44 111 39 38
c44 43 55 80 48 163 -9 109 -65 146 -230 154 l-108 5 0 -302z m211 170 c18
-14 24 -29 24 -61 0 -53 -29 -80 -86 -80 l-39 0 0 80 0 80 39 0 c23 0 48 -8
62 -19z"/>
<path d="M1844 1371 c-73 -45 -107 -133 -107 -281 0 -198 67 -302 193 -302
128 0 195 104 195 302 0 153 -38 245 -116 285 -40 21 -127 19 -165 -4z m127
-97 c27 -16 39 -76 39 -186 0 -160 -25 -204 -105 -184 -38 10 -58 75 -58 191
1 112 18 170 55 184 24 9 50 7 69 -5z"/>
</g>
</svg>
